# xmcd
#
# Track frame offsets: 
#        150
#        16110
#        32260
#        56577
#        73795
#        98805
#        113350
#        131135
#        147662
#        160607
#        182282
#        199117
#
# Disc length: 2900 seconds
#
# Revision: 2
# Processed by: cddbd v1.5.2PL0 Copyright (c) Steve Scherf et al.
# Submitted via: ExactAudioCopy v0.99pb5
#
DISCID=960b520c
DTITLE=Ronnie Earl And The Broadcasters - Peace Of My Mind
DYEAR=1900
DGENRE=Blues
TTITLE0=I Want To Shout About It
TTITLE1=I Wish You Could See Me Now
TTITLE2=Peace Of Mind
TTITLE3=T-bone Boogie
TTITLE4=Wayne's Blues
TTITLE5=Bonehead Too
TTITLE6=More Than I Deserve
TTITLE7=Can't Keep From Crying
TTITLE8=I Cried My Eyes Out
TTITLE9=No Use Crying
TTITLE10=Stickin'
TTITLE11=Wayward Angel
EXTD=
EXTT0=
EXTT1=
EXTT2=
EXTT3=
EXTT4=
EXTT5=
EXTT6=
EXTT7=
EXTT8=
EXTT9=
EXTT10=
EXTT11=
PLAYORDER=
